<?xml version="1.0" encoding="utf-8"?>
<!-- Generator: Adobe Illustrator 18.0.0, SVG Export Plug-In . SVG Version: 6.00 Build 0)  -->
<!DOCTYPE svg PUBLIC "-//W3C//DTD SVG 1.1//EN" "http://www.w3.org/Graphics/SVG/1.1/DTD/svg11.dtd">
<svg version="1.1"
	 id="Layer_2" xmlns:cc="http://creativecommons.org/ns#" xmlns:svg="http://www.w3.org/2000/svg" xmlns:rdf="http://www.w3.org/1999/02/22-rdf-syntax-ns#" xmlns:dc="http://purl.org/dc/elements/1.1/"
	 xmlns="http://www.w3.org/2000/svg" xmlns:xlink="http://www.w3.org/1999/xlink" x="0px" y="0px" viewBox="0 0 47.52 47.52"
	 enable-background="new 0 0 47.52 47.52" xml:space="preserve">
<path fill="#010202" d="M47.48,11.9c0-6.55-5.31-11.86-11.86-11.86c-6.55,0-11.86,5.31-11.86,11.86s5.31,11.86,11.86,11.86"/>
<path fill="#010202" d="M35.62,23.76L35.62,23.76c6.55,0,11.86-5.31,11.86-11.86"/>
<path fill="#010202" d="M0.04,35.62c0,6.55,5.31,11.86,11.86,11.86c6.55,0,11.86-5.31,11.86-11.86c0-6.55-5.31-11.86-11.86-11.86"/>
<path fill="#010202" d="M11.9,23.76L11.9,23.76c-6.55,0-11.86,5.31-11.86,11.86"/>
<path fill="#010202" d="M47.48,35.62c0-6.55-5.31-11.86-11.86-11.86s-11.86,5.31-11.86,11.86"/>
<path fill="#010202" d="M23.76,35.62L23.76,35.62c0,6.55,5.31,11.86,11.86,11.86s11.86-5.31,11.86-11.86"/>
<path fill="#010202" d="M0.04,11.9c0,6.55,5.31,11.86,11.86,11.86s11.86-5.31,11.86-11.86"/>
<path fill="#010202" d="M23.76,11.9L23.76,11.9c0-6.55-5.31-11.86-11.86-11.86S0.04,5.35,0.04,11.9"/>
</svg>
