<?xml version="1.0" encoding="utf-8"?>
<!-- Generator: Adobe Illustrator 18.0.0, SVG Export Plug-In . SVG Version: 6.00 Build 0)  -->
<!DOCTYPE svg PUBLIC "-//W3C//DTD SVG 1.1//EN" "http://www.w3.org/Graphics/SVG/1.1/DTD/svg11.dtd">
<svg version="1.1" id="Layer_1" xmlns="http://www.w3.org/2000/svg" xmlns:xlink="http://www.w3.org/1999/xlink" x="0px" y="0px"
	 viewBox="0 0 47.5 47.5" enable-background="new 0 0 47.5 47.5" xml:space="preserve">
<rect x="21.1" y="21.1" fill="#010202" width="5.3" height="5.3"/>
<rect x="10.5" y="21.1" fill="#010202" width="5.3" height="5.3"/>
<rect x="21.1" y="10.5" fill="#010202" width="5.3" height="5.3"/>
<rect x="10.5" y="10.5" fill="#010202" width="5.3" height="5.3"/>
<rect x="42.2" y="21.1" fill="#010202" width="5.3" height="5.3"/>
<rect x="42.3" y="10.5" fill="#010202" width="5.3" height="5.3"/>
<rect x="31.7" y="10.5" fill="#010202" width="5.3" height="5.3"/>
<rect x="31.7" y="21.1" fill="#010202" width="5.3" height="5.3"/>
<rect x="21.1" y="42.3" fill="#010202" width="5.3" height="5.3"/>
<rect x="21.1" y="31.7" fill="#010202" width="5.3" height="5.3"/>
<rect x="10.5" y="42.3" fill="#010202" width="5.3" height="5.3"/>
<rect x="10.5" y="31.7" fill="#010202" width="5.3" height="5.3"/>
<rect x="42.3" y="42.3" fill="#010202" width="5.3" height="5.3"/>
<rect x="31.7" y="31.7" fill="#010202" width="5.3" height="5.3"/>
<rect x="31.7" y="42.3" fill="#010202" width="5.3" height="5.3"/>
<rect x="42.3" y="31.7" fill="#010202" width="5.3" height="5.3"/>
</svg>
