<svg version="1.1" xmlns="http://www.w3.org/2000/svg" xmlns:xlink="http://www.w3.org/1999/xlink" width="960" height="960" viewBox="0 0 960 960"><defs/><g transform="scale(1,1) scale(1,1)"><g transform="scale(1,1)"><g transform="scale(1,1)"><g transform="scale(1,1)"><g transform="scale(1,1)"><g transform="scale(1,1)"><g transform="scale(1,1)"><g transform="scale(1,1)"><g transform="scale(1,1)"><g transform="scale(1,1)"><g transform="scale(1,1)"><g transform="scale(1,1)"><g transform="scale(1,1)"><g transform="scale(1,1)"><g transform="scale(1,1)"><g transform="scale(1,1)"><g transform="scale(1,1)"><g transform="scale(1,1)"><g transform="scale(1,1)"><g transform="scale(1,1)"><g transform="scale(1,1)"><g transform="scale(1,1)"><g transform="scale(1,1)"><g transform="scale(1,1)"><g transform="scale(1,1)"><g transform="scale(1,1)"><g transform="scale(1,1)"><g transform="scale(1,1)"><g transform="scale(1,1)"><g transform="scale(1,1)"><g transform="scale(1,1)"><g transform="scale(1,1)"><g transform="scale(1,1)"><g transform="scale(1,1)"><g transform="scale(1,1)"><g transform="scale(1,1)"><rect fill="rgb(255,255,255)" stroke="none" x="0" y="0" width="960" height="960" fill-opacity="1"/></g><g transform="scale(1,1)"><g transform="scale(1,1)"><rect fill="rgb(255,255,255)" stroke="none" x="0" y="0" width="960" height="960" fill-opacity="1"/></g><g transform="scale(1,1)"><rect fill="rgb(255,255,255)" stroke="none" x="0" y="0" width="960" height="960" fill-opacity="1"/></g></g></g></g></g></g></g></g></g></g></g></g></g></g></g></g></g></g></g></g></g></g></g></g></g></g></g></g></g></g></g></g></g></g></g></g></g></svg>